<svg width="65" height="65" fill="none" xmlns="http://www.w3.org/2000/svg"><g clip-path="url(#clip0_2129_12945)" fill="#fff"><path d="M8.282 54.697H.314V9.645h64.37v22.89h-47.91v-7.907h39.943v-7.075H8.282v37.144z"/><path d="M22.54 38.05v6.45h-1.677v-4.993H18.66V44.5h-1.677v-6.45h5.556zm3.67 1.769v.52c.314-.416.838-.624 1.362-.624.63 0 1.153.208 1.468.728.314.52.524 1.04.524 1.769 0 .728-.21 1.352-.524 1.768-.315.417-.839.625-1.468.625-.524 0-1.048-.208-1.363-.624v2.08h-1.572V39.82h1.572zm.943 1.144c-.315 0-.524.104-.63.312-.209.208-.209.52-.209.937 0 .416.105.728.21.936.21.208.42.312.734.312s.524-.104.733-.312c.21-.208.21-.52.21-.936 0-.417-.105-.729-.21-.937-.314-.208-.524-.312-.838-.312zm6.709-1.248c.734 0 1.363.208 1.782.728.42.52.734 1.04.734 1.769 0 .728-.21 1.352-.733 1.768-.525.417-1.049.729-1.783.729S32.5 44.5 32.08 43.98c-.42-.52-.734-1.04-.734-1.768 0-.729.21-1.353.734-1.77.524-.415 1.048-.727 1.782-.727zm0 1.144c-.314 0-.524.104-.734.312-.21.208-.21.52-.21.937 0 .416.106.728.21 1.04.21.208.42.312.734.312.315 0 .524-.104.734-.312.21-.208.21-.624.21-1.04 0-.416-.105-.729-.21-.937-.21-.208-.42-.312-.734-.312zm7.444 2.393l.943-3.433h2.097V44.5H42.88v-3.226l-.84 3.226h-1.467l-.839-3.226V44.5h-1.467v-4.682h2.096l.944 3.433zm9.959-.728h-3.564c0 .312.105.624.315.832.21.208.419.312.733.312.42 0 .734-.208.839-.52h1.468c-.105.52-.42.936-.839 1.145-.42.312-.944.416-1.468.416-.733 0-1.363-.208-1.887-.625-.524-.416-.734-1.04-.734-1.768 0-.729.21-1.353.734-1.77.524-.415 1.049-.727 1.782-.727.734 0 1.363.208 1.888.728.419.52.629 1.144.629 1.977h.104zm-1.572-.833c0-.312-.105-.52-.315-.624-.21-.208-.419-.208-.733-.208-.525 0-.944.312-1.049.936h2.097v-.104zm4.927-1.872v.52c.315-.416.839-.624 1.363-.624.63 0 1.153.208 1.468.728.314.52.524 1.04.524 1.769 0 .728-.21 1.352-.524 1.768-.315.417-.839.625-1.468.625-.524 0-1.048-.208-1.363-.624v2.08h-1.572V39.82h1.572zm.944 1.144c-.315 0-.525.104-.63.312-.209.208-.209.52-.209.937 0 .416.105.728.21.936.21.208.419.312.733.312.315 0 .525-.104.734-.312.21-.208.21-.52.21-.936 0-.417-.105-.729-.21-.937-.314-.208-.524-.312-.838-.312zM20.863 50.64H18.45v-2.498h-1.677v6.763h1.677v-2.809h2.412v2.81h1.677v-6.764h-1.677v2.497zm3.774 4.265h1.782v-5.202h2.411v5.202h1.678v-6.763h-5.871v6.763zm11.427-4.058l2.726-2.705h-2.202l-2.306 2.497v-2.497h-1.678v6.763h1.678V52.72l.629-.624 1.992 2.81h2.096l-2.935-4.059z"/></g><defs><clipPath id="clip0_2129_12945"><path fill="#fff" transform="translate(.314 9.645)" d="M0 0h64.37v45.26H0z"/></clipPath></defs></svg>