<?xml version="1.0" encoding="utf-8"?><svg viewBox="0 0 40 40" xmlns="http://www.w3.org/2000/svg" xmlns:xlink="http://www.w3.org/1999/xlink"><style>:root>svg{display:none}:root>svg:target{display:block}</style><svg fill="none" viewBox="0 0 20 21" id="chevron-left-green" xmlns="http://www.w3.org/2000/svg"><path d="M11.667 15.643l-5-5 5-5 1.167 1.166L9 10.643l3.834 3.833-1.167 1.167z" fill="#6EBF52"/></svg><svg viewBox="0 0 24 24" id="grid-grey" xmlns="http://www.w3.org/2000/svg"><path d="M13 3h8v8h-8zm0 10h8v8h-8zM3 3h8v8H3zm0 10h8v8H3z"/></svg><svg viewBox="0 0 24 24" id="list-grey" xmlns="http://www.w3.org/2000/svg"><path d="M3 3h4v4H3zm6 0h12v4H9zm-6 7h4v4H3zm6 0h12v4H9zm-6 7h4v4H3zm6 0h12v4H9z"/></svg><svg fill="none" viewBox="0 0 30 30" id="next" xmlns="http://www.w3.org/2000/svg"><path d="M11.75 22.5L10 20.75 15.75 15 10 9.25l1.75-1.75 7.5 7.5-7.5 7.5z" fill="#ABA7A5"/></svg><svg fill="none" viewBox="0 0 40 40" id="next-slide" xmlns="http://www.w3.org/2000/svg"><path d="M16.97 6.075l14.14 14.143L16.97 34.36" stroke="#6EBF52" stroke-width="2.222"/></svg><svg fill="none" viewBox="0 0 30 30" id="prev" xmlns="http://www.w3.org/2000/svg"><path d="M17.5 22.5L10 15l7.5-7.5 1.75 1.75L13.5 15l5.75 5.75-1.75 1.75z" fill="#ABA7A5"/></svg></svg>