<svg width="22" height="22" fill="none" xmlns="http://www.w3.org/2000/svg"><g clip-path="url(#clip0_2031_14520)"><path d="M10.45.003c-1.766.022-5.562.312-7.685 2.26C1.185 3.827.635 6.14.57 9c-.054 2.85-.118 8.204 5.041 9.661v2.22s-.032.888.555 1.07c.723.23 1.135-.454 1.823-1.188l1.282-1.45c3.53.294 6.234-.383 6.545-.483.717-.23 4.752-.745 5.411-6.098.677-5.53-.33-9.013-2.145-10.589h-.01c-.549-.504-2.75-2.109-7.67-2.127 0 0-.366-.024-.953-.014zm.06 1.555c.5-.004.805.018.805.018 4.165.01 6.152 1.264 6.621 1.686 1.529 1.31 2.317 4.451 1.74 9.067-.548 4.476-3.82 4.759-4.426 4.952-.258.082-2.64.67-5.64.476 0 0-2.234 2.697-2.932 3.391-.111.122-.24.158-.323.14-.118-.03-.154-.176-.147-.376l.021-3.685c-4.376-1.21-4.118-5.775-4.071-8.16.054-2.385.501-4.336 1.833-5.658 1.794-1.621 5.017-1.84 6.517-1.851h.002zm.33 2.384a.273.273 0 100 .548 5.165 5.165 0 013.695 1.458c.999.97 1.486 2.273 1.504 3.977 0 .151.122.276.276.276v-.01a.275.275 0 00.276-.273 5.921 5.921 0 00-1.662-4.365C13.84 4.489 12.46 3.94 10.839 3.94v.001zm-3.624.63a.86.86 0 00-.563.111H6.64c-.393.23-.747.522-1.05.863-.25.29-.386.584-.422.866a1.17 1.17 0 00.043.498l.018.011c.283.83.652 1.63 1.103 2.382a14.008 14.008 0 002.127 2.907l.025.036.04.029.024.028.029.025a14.212 14.212 0 002.915 2.138c1.21.658 1.944.97 2.385 1.099v.007c.129.04.247.057.365.057.375-.028.73-.18 1.01-.433a4.17 4.17 0 00.852-1.053v-.007c.211-.397.14-.773-.165-1.027a12.697 12.697 0 00-1.97-1.415c-.468-.254-.945-.1-1.138.158l-.412.519c-.21.258-.595.222-.595.222l-.01.007C8.953 11.869 8.19 8.973 8.19 8.973s-.036-.394.229-.595l.515-.415c.247-.201.419-.677.154-1.146a12.37 12.37 0 00-1.41-1.97.784.784 0 00-.463-.276l.002.002zm4.1.817c-.366 0-.366.552.003.552a3.456 3.456 0 012.427 1.052 3.203 3.203 0 01.824 2.356.277.277 0 00.276.273l.01.014a.278.278 0 00.276-.276c.025-1.092-.314-2.009-.98-2.743-.67-.734-1.605-1.146-2.797-1.228h-.04zm.451 1.483c-.376-.011-.39.55-.018.562.906.047 1.346.505 1.404 1.446a.274.274 0 00.272.27h.011a.277.277 0 00.265-.294c-.065-1.228-.734-1.92-1.923-1.984h-.01z" fill="#8F5DB7"/></g><defs><clipPath id="clip0_2031_14520"><path fill="#fff" d="M0 0h22v22H0z"/></clipPath></defs></svg>