<svg width="34" height="34" fill="none" xmlns="http://www.w3.org/2000/svg"><path d="M21.25 5.667a11.334 11.334 0 110 22.667 11.334 11.334 0 010-22.667zm0 2.833a8.5 8.5 0 100 17 8.5 8.5 0 000-17zm-1.417 2.833h2.125v5.355l3.301 3.301-1.501 1.502-3.925-3.924v-6.234zm-17 14.167a1.417 1.417 0 010-2.833H8.26A14.54 14.54 0 009.917 25.5H2.833zm1.417-7.083a1.417 1.417 0 110-2.834h2.904L7.084 17l.07 1.417H4.25zm1.417-7.084a1.417 1.417 0 010-2.833h4.25a14.541 14.541 0 00-1.658 2.833H5.667z" fill="#6EBF52"/></svg>