<svg width="22" height="22" fill="none" xmlns="http://www.w3.org/2000/svg"><g clip-path="url(#clip0_2031_14519)"><path fill-rule="evenodd" clip-rule="evenodd" d="M15.964 13.184c-.273-.137-1.613-.795-1.862-.887-.25-.09-.43-.136-.613.138-.182.271-.703.885-.862 1.067-.16.182-.318.204-.59.068-.273-.137-1.15-.424-2.191-1.352-.81-.722-1.357-1.614-1.515-1.887-.159-.272-.018-.42.119-.556.123-.122.272-.318.409-.476.136-.16.181-.273.272-.456.092-.181.046-.34-.023-.477-.068-.136-.612-1.477-.84-2.023-.22-.53-.445-.458-.612-.467a11.79 11.79 0 00-.522-.01.998.998 0 00-.727.342c-.25.272-.953.931-.953 2.272 0 1.34.976 2.636 1.112 2.818.137.181 1.92 2.933 4.653 4.113.65.28 1.158.448 1.553.573.653.208 1.247.179 1.716.108.522-.078 1.611-.659 1.839-1.295.226-.636.226-1.182.158-1.295-.067-.114-.249-.182-.522-.319zm-4.97 6.786h-.004a9.048 9.048 0 01-4.613-1.264l-.33-.196-3.43.9.916-3.343-.216-.343a9.039 9.039 0 01-1.385-4.822c.002-4.996 4.067-9.06 9.065-9.06 2.42 0 4.695.944 6.406 2.656a9.005 9.005 0 012.65 6.41c0 4.996-4.065 9.062-9.06 9.062zm7.71-16.773A10.83 10.83 0 0010.994 0C4.985 0 .093 4.89.092 10.901a10.875 10.875 0 001.454 5.45L0 22l5.779-1.516a10.9 10.9 0 005.21 1.327h.005c6.007 0 10.899-4.89 10.9-10.902a10.836 10.836 0 00-3.19-7.712z" fill="#6EBF52"/></g><defs><clipPath id="clip0_2031_14519"><path fill="#fff" d="M0 0h22v22H0z"/></clipPath></defs></svg>