<svg width="36" height="35" fill="none" xmlns="http://www.w3.org/2000/svg"><g clip-path="url(#clip0_2031_13726)"><path fill-rule="evenodd" clip-rule="evenodd" d="M23.21 2.955h1.419v-1.42h-13.26v1.42h1.42v12.5L4.796 26.111a4.98 4.98 0 00-.434 5.324 5.15 5.15 0 001.933 2.029 5.337 5.337 0 002.725.745h17.957a5.34 5.34 0 002.725-.745 5.15 5.15 0 001.932-2.029 4.98 4.98 0 00-.433-5.324l-.949-1.229-7.043-9.428v-12.5zm-1.42 0h-7.58v12.973l-4.632 6.175h16.825l-4.614-6.176V2.955zM5.931 26.964l2.581-3.441h18.95l1.655 2.215.95 1.23a3.561 3.561 0 01.31 3.808 3.728 3.728 0 01-1.401 1.468c-.6.357-1.293.546-2 .546H9.02c-.707 0-1.4-.19-2-.546a3.728 3.728 0 01-1.4-1.468 3.56 3.56 0 01.312-3.812z" fill="#6EBF52"/></g><defs><clipPath id="clip0_2031_13726"><path fill="#fff" d="M0 0h36v34.909H0z"/></clipPath></defs></svg>