<svg width="36" height="36" fill="none" xmlns="http://www.w3.org/2000/svg"><path fill-rule="evenodd" clip-rule="evenodd" d="M25.438 13.86a7.02 7.02 0 00-6.004 6.229 1.62 1.62 0 001.611 1.786h5.331a2 2 0 001.997-2.12l-.29-4.839a1.31 1.31 0 00-1.489-1.219l-1.156.163zm1.235 1.26l-1.037.146a5.599 5.599 0 00-4.79 4.969.2.2 0 00.2.22h5.33a.58.58 0 00.58-.615l-.283-4.72z" fill="#6EBF52"/><path fill-rule="evenodd" clip-rule="evenodd" d="M15.566 20.034c-.026.117-.05.235-.073.353L13.249 32H33l-1.978-19.343A2.958 2.958 0 0028.078 10c-2.123 0-4.144.52-5.927 1.452-.588-2.895-1.98-5.22-4.083-7.043-2.213-1.917-5.183-3.25-8.759-4.144-2.057-.514-3.995.927-4.322 2.947L1.977 21.25h-.004v3.653a4.847 4.847 0 009.418 1.613l1.858-5.266H6.262L8.915 5.803c.028-.164.165-.231.265-.212 5.898 1.126 8.361 6.319 7.255 10.866l-.888 3.605.02-.028zM8.965 1.642c-1.18-.294-2.37.523-2.576 1.797L3.509 21.25h1.313L7.514 5.563c.152-.882.988-1.547 1.931-1.367 5.915 1.13 8.858 5.883 8.656 10.574a12.86 12.86 0 012.757-2.543l-.012-.025c-.47-2.815-1.734-5.01-3.708-6.72-1.988-1.721-4.727-2.978-8.173-3.84zM31.427 30.58l-1.819-17.778a1.538 1.538 0 00-1.53-1.382 11.398 11.398 0 00-11.191 9.236L14.97 30.58h16.457zm-21.375-4.536l1.19-3.374h-7.85v2.233a3.427 3.427 0 006.66 1.14z" fill="#6EBF52"/></svg>