<svg width="36" height="36" fill="none" xmlns="http://www.w3.org/2000/svg"><path d="M27.14 16.031c-.985-3.016-2.867-5.74-4.696-7.873a38.653 38.653 0 00-4.863-4.733 21.872 21.872 0 00-.435-.342l-.46-.344-.46.344a19.529 19.529 0 01-.434.342 38.665 38.665 0 00-4.864 4.733C8.29 11.237 5.54 15.543 5.54 20.188c0 6.156 4.991 11.147 11.148 11.147h.062v-1.42h-.062c-5.373 0-9.728-4.355-9.728-9.727 0-4.12 2.468-8.095 5.048-11.106a37.248 37.248 0 014.677-4.552l.003-.002.002.002a37.249 37.249 0 014.677 4.552c1.695 1.978 3.342 4.372 4.272 6.95h1.501z" fill="#6EBF52"/><path fill-rule="evenodd" clip-rule="evenodd" d="M20.392 20.879c-.047-.838-.404-1.613-.992-2.387l1.131-.859c.694.914 1.21 1.954 1.279 3.165.069 1.216-.319 2.506-1.253 3.908-1.535 2.303-.825 4.517-.007 5.703l-1.169.807c-1.035-1.501-1.962-4.364-.006-7.297.81-1.216 1.064-2.207 1.017-3.04zm4.438 0c-.048-.838-.404-1.613-.992-2.387l1.13-.859c.695.914 1.21 1.954 1.28 3.165.068 1.216-.32 2.506-1.254 3.908-1.535 2.303-.825 4.517-.006 5.703l-1.169.807c-1.036-1.501-1.962-4.364-.006-7.297.81-1.216 1.064-2.207 1.017-3.04zm4.437 0c-.047-.838-.404-1.613-.992-2.387l1.131-.859c.694.914 1.21 1.954 1.279 3.165.069 1.216-.319 2.506-1.253 3.908-1.535 2.303-.825 4.517-.007 5.703l-1.169.807c-1.035-1.501-1.962-4.364-.006-7.297.81-1.216 1.064-2.207 1.017-3.04z" fill="#6EBF52"/></svg>