<svg width="120" height="120" fill="none" xmlns="http://www.w3.org/2000/svg"><path d="M78.91 80c0-5.367-14.816-9.714-33.092-9.714M78.91 80c0 5.367-14.815 9.714-33.09 9.714-18.277 0-33.092-4.347-33.092-9.714m66.182 0v23.98c0 5.532-14.815 10.02-33.09 10.02-18.277 0-33.092-4.483-33.092-10.02V80m66.182 0C96.986 80 112 75.206 112 70.286V21.714M45.818 70.286c-18.275 0-33.09 4.347-33.09 9.714m33.09-9.714C24.933 70.286 8 65.492 8 60.57V36.286m37.818-9.715C24.933 26.571 8 30.92 8 36.286m0 0C8 41.653 24.933 46 45.818 46c0 4.92 15.378 9.714 33.455 9.714C97.346 55.714 112 50.92 112 46m0-24.286C112 16.347 97.346 12 79.273 12c-18.077 0-32.727 4.347-32.727 9.714m65.454 0c0 5.367-14.654 9.715-32.727 9.715-18.072 0-32.727-4.348-32.727-9.715m0 0v49.378" stroke="#6EBF52" stroke-width="1.417"/></svg>