<svg width="127" height="127" fill="none" xmlns="http://www.w3.org/2000/svg"><path fill-rule="evenodd" clip-rule="evenodd" d="M65.35 94.793H47.046a12.45 12.45 0 01-8.805-3.649 12.46 12.46 0 01-3.646-8.808v-38.55l2-.408c3.18-.65 6.04-2.38 8.093-4.897a14.1 14.1 0 003.175-8.916v-.052a13.79 13.79 0 00-1.066-5.62l-.004-.008-.003-.008a13.962 13.962 0 00-7.595-7.6l-.008-.003-.008-.004a13.745 13.745 0 00-5.613-1.067h-.055a14.078 14.078 0 00-13.013 8.678 14.237 14.237 0 003.034 15.394 14.678 14.678 0 007.184 3.842l1.98.421v38.875a14.036 14.036 0 004.106 9.976 14.018 14.018 0 009.968 4.109h18.316l-10.923 10.93 1.175 1.176 11.63-11.637V94.39l-11.59-11.598-.988 1.033 10.96 10.968zM26.88 39.608l-.003-.002a12.706 12.706 0 01-4.625-5.618l-.006-.015-.006-.014a12.396 12.396 0 01-.667-7.139 12.392 12.392 0 019.792-9.797 12.38 12.38 0 017.137.667l.016.007.016.007a12.784 12.784 0 015.608 4.62l.004.007.004.006a12.462 12.462 0 01-1.557 15.714 12.448 12.448 0 01-15.71 1.559l-.002-.002zM94.3 81.39V42.498a14.036 14.036 0 00-4.106-9.976 14.018 14.018 0 00-9.969-4.109H61.91l10.924-10.93-1.176-1.176-11.63 11.637v2.576l11.63 11.638 1.176-1.177-10.924-10.93h18.306a12.46 12.46 0 0112.451 12.457v38.908l-2.023.394a13.46 13.46 0 00-4.98 2.072l-.003.002-.004.003a14.09 14.09 0 00-6.167 10.338 14.105 14.105 0 004.063 11.333 14.084 14.084 0 0011.326 4.059 14.087 14.087 0 0010.324-6.172 14.17 14.17 0 00-1.746-17.816 14.231 14.231 0 00-7.156-3.83l-2-.41zm-3.228 2.019c2.39-.485 4.87-.252 7.129.668l.016.006.017.007a12.787 12.787 0 015.608 4.621l.005.008.005.008a12.458 12.458 0 11-21.903 11.625l-.001-.003-.002-.004a12.395 12.395 0 01-.667-7.139 12.392 12.392 0 019.793-9.797z" fill="#6EBF52"/></svg>