<svg width="120" height="121" fill="none" xmlns="http://www.w3.org/2000/svg"><path fill-rule="evenodd" clip-rule="evenodd" d="M50.098 13.07h.004c2.222.001 4.427.086 6.615.254 2.155.165 4.313.463 6.474.895l.038.007.038.006c1.163.197 2.527.48 4.099.852a36.73 36.73 0 014.56 1.411 72.179 72.179 0 014.761 2.011c1.411.655 2.59 1.455 3.566 2.387 1.072 1.025 1.953 2.073 2.656 3.143.485.736.781 1.708.755 3.053v23.463h-1.382V31.306l-3.995 3.485-.014.009c-1.799 1.163-3.839 2.153-6.133 2.96a53.35 53.35 0 01-7.254 1.986 72.68 72.68 0 01-7.592 1.107 79.13 79.13 0 01-7.214.353c-2.253 0-4.65-.1-7.194-.304-2.49-.2-5.002-.565-7.535-1.098a58.186 58.186 0 01-7.331-2.044c-2.294-.807-4.335-1.797-6.133-2.96l-.015-.01-3.995-3.484v55.832a5.1 5.1 0 00.84 2.834c.374.57.81 1.101 1.297 1.595 1.225 1.241 2.716 2.283 4.427 3.15a31.942 31.942 0 005.315 2.099 83.231 83.231 0 005.305 1.398 57.12 57.12 0 002.36.489c4.876.915 11.579 1.481 11.579 1.481l-2 1.108s-4.5-.293-9.663-1.108a89.055 89.055 0 01-2.067-.386 53.025 53.025 0 01-5.242-1.341 45.603 45.603 0 01-5.251-1.971 21.115 21.115 0 01-4.35-2.597c-1.253-.974-2.192-2.025-2.864-3.143-.59-.979-.934-2.163-.965-3.63V27.139c0-1.26.28-2.3.789-3.19.604-1.058 1.417-2.061 2.464-3.004 1.033-.93 2.24-1.732 3.64-2.396a75.836 75.836 0 014.77-2.064 29.909 29.909 0 014.492-1.392c1.547-.34 2.96-.648 4.24-.92L37 14.17h.005a72.715 72.715 0 016.49-.795c2.202-.17 4.403-.27 6.604-.305zm-29.316 8.862a11.63 11.63 0 00-1.665 1.707 5.517 5.517 0 00-1.24 3.5c0 1.299.456 2.47 1.24 3.448a13.81 13.81 0 001.71 1.795l.019.016.018.015c1.844 1.544 4.069 2.773 6.62 3.724a47.526 47.526 0 007.773 2.149c2.644.5 5.257.876 7.839 1.127 2.24.218 4.307.33 6.195.331l.881-.007c2.019-.003 4.29-.111 6.805-.32a76.57 76.57 0 007.874-1.079 44.4 44.4 0 007.805-2.214c2.523-.977 4.723-2.193 6.55-3.68l.002-.001a11.513 11.513 0 001.784-1.803 5.78 5.78 0 001.287-3.373l.003-.064v-.064c0-1.299-.455-2.47-1.24-3.448a12.186 12.186 0 00-1.812-1.837l-.002-.002c-1.841-1.538-4.06-2.763-6.603-3.71a47.89 47.89 0 00-7.716-2.149 84.468 84.468 0 00-7.848-1.128c-2.596-.249-4.933-.36-7.002-.324h-.004c-2.036 0-4.329.11-6.872.321-2.595.216-5.22.576-7.874 1.078a44.397 44.397 0 00-7.806 2.214c-2.406.932-4.528 2.079-6.327 3.465l-.394.313z" fill="#6EBF52"/><circle cx="81.5" cy="75.5" r="15.791" stroke="#6EBF52" stroke-width="1.417"/><circle cx="81.5" cy="75.5" r="21.791" stroke="#6EBF52" stroke-width="1.417"/><path d="M64.338 88.172l-15.361 15.041a3.77 3.77 0 00-.056 5.331v0a3.77 3.77 0 005.33.056l15.361-15.041" stroke="#6EBF52" stroke-width="1.42"/></svg>