<svg width="121" height="120" fill="none" xmlns="http://www.w3.org/2000/svg"><path fill-rule="evenodd" clip-rule="evenodd" d="M24.451 63.697h-4.57v-11.28a5.817 5.817 0 015.817-5.817v.215h.02v28.401H24.45V63.698zm0-1.266h-3.304V52.417a4.553 4.553 0 013.304-4.378v14.392zM7.545 58.549V47.233H6.28V58.55c0 2.648 2 4.83 4.57 5.116V75.44h1.267V63.652a5.15 5.15 0 004.46-5.103V47.233H15.31V58.55a3.883 3.883 0 01-3.193 3.821V47.233H10.85v15.155a3.883 3.883 0 01-3.305-3.839zm36.48-49.914h1.266V7.37H33.464v1.266h1.267v11.149l-7.128 9.505a4.443 4.443 0 00-.387 4.749c.393.748.99 1.373 1.723 1.809a4.76 4.76 0 002.431.665h16.015a4.76 4.76 0 002.431-.665 4.591 4.591 0 001.723-1.81 4.443 4.443 0 00-.386-4.748l-.846-1.096-6.282-8.409V8.635zm-1.267 0h-6.76v11.57l-4.13 5.508h15.005l-4.115-5.508V8.635zM28.616 30.05l2.302-3.07h16.901l1.476 1.976.847 1.097a3.175 3.175 0 01.276 3.396 3.325 3.325 0 01-1.249 1.31 3.493 3.493 0 01-1.784.487H31.37a3.5 3.5 0 01-1.784-.487 3.325 3.325 0 01-1.249-1.31 3.175 3.175 0 01.279-3.4zm57.505-11.688a6.26 6.26 0 00-5.355 5.555 1.445 1.445 0 001.437 1.593h4.755a1.784 1.784 0 001.78-1.89l-.257-4.316a1.168 1.168 0 00-1.328-1.087l-1.032.145zm1.102 1.124l-.925.13a4.994 4.994 0 00-4.272 4.431.178.178 0 00.177.197h4.755a.517.517 0 00.516-.549l-.251-4.21z" fill="#6EBF52"/><path fill-rule="evenodd" clip-rule="evenodd" d="M77.316 23.868c-.023.104-.045.21-.065.315l-2 10.358h17.614l-1.764-17.252a2.638 2.638 0 00-2.625-2.37 11.4 11.4 0 00-5.286 1.295c-.525-2.582-1.766-4.656-3.642-6.281-1.974-1.71-4.623-2.9-7.812-3.697-1.835-.458-3.564.828-3.855 2.629l-2.684 16.088h-.004v3.258a4.323 4.323 0 008.4 1.439l1.657-4.697h-6.23l2.364-13.777c.026-.147.148-.207.237-.19 5.26 1.005 7.457 5.636 6.47 9.692l-.791 3.216.017-.026zM71.43 7.465c-1.052-.263-2.114.466-2.298 1.602l-2.568 15.886h1.17l2.402-13.991c.135-.787.88-1.38 1.722-1.22 5.276 1.007 7.9 5.248 7.72 9.431a11.467 11.467 0 012.46-2.268l-.012-.022c-.418-2.51-1.546-4.468-3.306-5.993-1.773-1.536-4.216-2.657-7.29-3.425zm20.033 25.81l-1.621-15.857a1.372 1.372 0 00-1.365-1.233 10.166 10.166 0 00-9.981 8.238l-1.71 8.851h14.677zm-19.064-4.047l1.062-3.009h-7v1.992a3.057 3.057 0 005.938 1.017z" fill="#6EBF52"/><g clip-path="url(#clip0_2084_12073)" stroke="#6EBF52" stroke-width="1.5"><circle cx="39.27" cy="99.946" r="6.62"/><path d="M29.908 99.946h-4.74m28.205 0h-4.74m-15.983-6.62l-4.022-4.022m21.285 21.284l-4.022-4.022M39.27 90.584v-4.74m0 28.205v-4.741m6.62-15.982l4.023-4.022m-21.285 21.284l4.022-4.022"/></g><path d="M91.304 91.752l-7.727 6.045v-6.045l-7.995 5.931v-9.66h-8.13v23.846h23.852V91.752z" stroke="#6EBF52" stroke-width="1.266" stroke-linejoin="round"/><path d="M83.002 111.869v-10.084h-6.494v10.084" stroke="#6EBF52" stroke-width="1.266" stroke-linejoin="round"/><path d="M112.206 60.082c-.877-2.69-2.556-5.12-4.187-7.023a34.376 34.376 0 00-4.338-4.22 15.06 15.06 0 00-.305-.242l-.082-.064-.41-.306-.411.306a13.32 13.32 0 01-.387.305 34.506 34.506 0 00-4.338 4.221c-2.353 2.747-4.807 6.587-4.807 10.73 0 5.49 4.451 9.942 9.943 9.942h.055v-1.266h-.055a8.676 8.676 0 01-8.676-8.676c0-3.675 2.2-7.22 4.502-9.905a33.253 33.253 0 014.171-4.06l.003-.002.002.002a33.23 33.23 0 014.171 4.06c1.512 1.764 2.98 3.899 3.81 6.198h1.339z" fill="#6EBF52"/><path fill-rule="evenodd" clip-rule="evenodd" d="M106.19 64.405c-.042-.747-.36-1.438-.884-2.129l1.008-.765c.619.814 1.079 1.743 1.141 2.823.061 1.083-.284 2.235-1.118 3.485-1.369 2.054-.736 4.028-.006 5.087l-1.042.719c-.924-1.339-1.75-3.892-.006-6.508.723-1.085.949-1.969.907-2.712zm3.958 0c-.042-.747-.36-1.438-.885-2.129l1.009-.765c.619.814 1.079 1.743 1.14 2.823.062 1.083-.284 2.235-1.117 3.485-1.37 2.054-.736 4.028-.006 5.087l-1.042.719c-.924-1.339-1.75-3.892-.006-6.508.723-1.085.949-1.969.907-2.712zm3.957 0c-.042-.747-.36-1.438-.884-2.129l1.009-.765c.618.814 1.079 1.743 1.14 2.823.061 1.083-.284 2.235-1.118 3.485-1.369 2.054-.736 4.028-.005 5.087l-1.043.719c-.924-1.339-1.75-3.892-.006-6.508.723-1.085.949-1.969.907-2.712z" fill="#6EBF52"/><defs><clipPath id="clip0_2084_12073"><path fill="#fff" transform="translate(23.216 83.892)" d="M0 0h32.108v32.108H0z"/></clipPath></defs></svg>