<svg width="103" height="103" fill="none" xmlns="http://www.w3.org/2000/svg"><circle cx="51.26" cy="51.26" r="50.551" stroke="#6EBF52" stroke-width="1.417"/><path d="M75.355 51.26c0 14.072-2.762 26.777-7.194 35.937-4.457 9.21-10.477 14.614-16.9 14.614-6.425 0-12.445-5.404-16.901-14.614-4.433-9.16-7.194-21.865-7.194-35.937s2.761-26.777 7.194-35.938C38.816 6.112 44.836.71 51.26.71c6.424 0 12.444 5.403 16.9 14.613 4.433 9.16 7.195 21.866 7.195 35.938zm27.165.945H0M52.205 0v102.52" stroke="#6EBF52" stroke-width="1.417"/><mask id="a" fill="#fff"><path fill-rule="evenodd" clip-rule="evenodd" d="M89.776 17.433c-11.317 3.187-24.48 5.008-38.515 5.008s-27.198-1.821-38.515-5.008c.35-.397.704-.788 1.065-1.175 11.02 3.03 23.805 4.766 37.45 4.766 13.645 0 26.43-1.737 37.45-4.766.36.387.716.778 1.065 1.175z"/></mask><path fill-rule="evenodd" clip-rule="evenodd" d="M89.776 17.433c-11.317 3.187-24.48 5.008-38.515 5.008s-27.198-1.821-38.515-5.008c.35-.397.704-.788 1.065-1.175 11.02 3.03 23.805 4.766 37.45 4.766 13.645 0 26.43-1.737 37.45-4.766.36.387.716.778 1.065 1.175z" fill="#6EBF52"/><path d="M89.776 17.433l.384 1.365 2.166-.61-1.485-1.69-1.065.935zm-77.03 0l-1.065-.935-1.485 1.69 2.166.61.384-1.365zm1.065-1.175l.376-1.366-.826-.227-.585.625 1.035.968zm74.9 0l1.035-.968-.585-.625-.826.227.376 1.366zm.68-.189c-11.18 3.148-24.214 4.955-38.13 4.955v2.834c14.153 0 27.446-1.836 38.9-5.06l-.77-2.729zm-38.13 4.955c-13.916 0-26.949-1.807-38.13-4.955l-.769 2.729c11.453 3.224 24.746 5.06 38.899 5.06v-2.834zm-37.45-2.655c.34-.386.684-.767 1.036-1.143l-2.071-1.936c-.371.397-.736.8-1.095 1.208l2.13 1.871zm-.375-.744C24.588 20.69 37.5 22.441 51.26 22.441v-2.835c-13.528 0-26.186-1.722-37.074-4.714l-.751 2.733zm37.825 4.816c13.761 0 26.673-1.75 37.825-4.816l-.75-2.733c-10.889 2.992-23.546 4.714-37.075 4.714v2.835zm36.415-5.215c.35.376.696.757 1.035 1.143l2.13-1.871c-.36-.408-.724-.81-1.095-1.208l-2.07 1.936z" fill="#6EBF52" mask="url(#a)"/><mask id="b" fill="#fff"><path fill-rule="evenodd" clip-rule="evenodd" d="M14.166 86.637a51.772 51.772 0 01-1.084-1.172c11.241-3.128 24.283-4.914 38.179-4.914s26.938 1.786 38.18 4.914a54.7 54.7 0 01-1.085 1.172c-10.94-2.969-23.596-4.668-37.095-4.668-13.499 0-26.156 1.699-37.095 4.668z"/></mask><path fill-rule="evenodd" clip-rule="evenodd" d="M14.166 86.637a51.772 51.772 0 01-1.084-1.172c11.241-3.128 24.283-4.914 38.179-4.914s26.938 1.786 38.18 4.914a54.7 54.7 0 01-1.085 1.172c-10.94-2.969-23.596-4.668-37.095-4.668-13.499 0-26.156 1.699-37.095 4.668z" fill="#6EBF52"/><path d="M14.166 86.637l-1.026.978.583.61.814-.22-.371-1.368zm-1.084-1.172l-.38-1.366-2.199.612 1.524 1.7 1.055-.946zm38.179-4.914v1.418-1.418zm38.18 4.914l1.054.946 1.524-1.7-2.199-.612-.38 1.366zm-1.085 1.172l-.371 1.368.814.22.583-.61-1.026-.978zm-37.095-4.668v1.417-1.417zm-36.07 3.69a50.268 50.268 0 01-1.054-1.14l-2.11 1.892c.365.407.736.809 1.113 1.204l2.051-1.956zm-1.729 1.171c11.108-3.09 24.02-4.861 37.799-4.861v-2.835c-14.013 0-27.184 1.8-38.559 4.965l.76 2.731zm37.799-4.861c13.779 0 26.691 1.77 37.8 4.861l.759-2.73c-11.375-3.166-24.546-4.966-38.559-4.966v2.835zm37.124 2.55c-.346.385-.697.765-1.054 1.14l2.05 1.956c.378-.395.75-.797 1.114-1.204l-2.11-1.892zm.342.75c-11.07-3.004-23.852-4.718-37.466-4.718v2.835c13.383 0 25.915 1.685 36.724 4.619l.742-2.736zm-37.466-4.718c-13.614 0-26.397 1.714-37.466 4.718l.742 2.736c10.81-2.934 23.34-4.62 36.724-4.62v-2.834z" fill="#6EBF52" mask="url(#b)"/></svg>